<svg width="38" height="35" viewBox="0 0 38 35" fill="none" xmlns="http://www.w3.org/2000/svg">
<g clip-path="url(#clip0_4062_14901)">
<mask id="mask0_4062_14901" style="mask-type:alpha" maskUnits="userSpaceOnUse" x="0" y="0" width="38" height="35">
<path d="M0 12.5229C1.57552 10.7227 3.15125 8.92346 4.72717 7.12509C6.70125 4.87642 8.67679 2.62912 10.6538 0.383188C11.0865 -0.108733 11.2695 -0.121452 11.7806 0.312942C12.5838 0.993491 13.386 1.67548 14.1871 2.3589C14.2865 2.44421 14.4106 2.51054 14.4753 2.66434C13.226 3.2267 11.9789 3.78802 10.7339 4.3483C9.5152 4.89462 8.29368 5.43448 7.07455 5.98197C6.15214 6.39641 5.81982 7.27204 6.24323 8.19092C7.10584 10.063 7.97428 11.9324 8.84856 13.7991C8.96291 14.0421 8.97126 14.139 8.67871 14.2617C7.24519 14.8624 6.52146 15.964 6.44708 17.4844C6.43296 17.7695 6.4449 18.0558 6.4449 18.4195C5.79158 17.8654 5.19871 17.3639 4.60764 16.8608C3.18101 15.6462 1.75518 14.4311 0.33014 13.2156C0.212205 13.1146 0.109782 12.9963 0 12.8859V12.5229Z" fill="#020202"/>
<path d="M29.7796 19.3776C28.4632 21.4564 28.3835 23.5415 29.9602 25.4838C31.4029 27.2609 33.3477 27.6908 35.5666 27.0914C35.6386 27.1785 35.6016 27.2898 35.6018 27.3892C35.6049 28.8578 35.6052 30.3263 35.6028 31.7946C35.5978 33.5513 34.3395 34.7962 32.5522 34.7972C25.2255 34.8011 17.8987 34.8011 10.572 34.7972C8.79561 34.7972 7.52516 33.5805 7.51979 31.8345C7.50507 27.0895 7.50435 22.3443 7.5176 17.5991C7.52079 16.0684 8.57167 15.0509 10.1241 15.0409C11.4192 15.0327 12.7145 15.0507 14.0094 15.0344C14.6576 15.0262 15.224 15.2057 15.7101 15.6215C16.6514 16.4255 17.4988 17.3264 18.4061 18.1652C18.7024 18.4392 18.9969 18.7152 19.2969 18.9855C19.5968 19.2557 19.9496 19.3402 20.3509 19.3394C23.3606 19.3327 26.3703 19.3321 29.3801 19.3377C29.5089 19.3375 29.6454 19.3013 29.7796 19.3776ZM21.5611 31.5252H31.3659C31.9625 31.5252 32.2071 31.3753 32.2127 31.007C32.2183 30.6276 31.9822 30.4764 31.3806 30.4764C24.8321 30.4764 18.2835 30.4764 11.7346 30.4764C11.6114 30.474 11.4882 30.4787 11.3655 30.4904C11.0776 30.5251 10.9184 30.7084 10.9037 30.9751C10.8888 31.2643 11.06 31.4549 11.3508 31.5138C11.4701 31.5379 11.5964 31.5252 11.7197 31.5252C15.0003 31.5254 18.2808 31.5254 21.5611 31.5252ZM14.0092 27.9481C14.834 27.9481 15.6587 27.9506 16.4833 27.9481C16.9009 27.9465 17.1474 27.7545 17.1611 27.4362C17.1752 27.1094 16.9119 26.8871 16.4831 26.8862C14.8462 26.8826 13.2091 26.8826 11.572 26.8862C11.142 26.8862 10.8803 27.108 10.894 27.4362C10.9071 27.7532 11.1567 27.9465 11.5722 27.9481C12.3846 27.9504 13.197 27.9481 14.0092 27.9481Z" fill="#010101"/>
<path d="M19.1337 17.3764H24.3934C26.1942 17.3764 27.9951 17.3759 29.796 17.375C29.9305 17.375 30.0691 17.3695 30.1982 17.3376C30.4253 17.2813 30.55 17.1224 30.5693 16.893C30.5891 16.6477 30.4768 16.4761 30.2511 16.3702C30.1228 16.3099 29.9873 16.3172 29.8521 16.3172C26.275 16.3172 22.6981 16.3166 19.1211 16.3154C18.8644 16.3154 18.622 16.335 18.4718 16.5727C18.3511 16.7647 18.2928 16.5839 18.2367 16.5314C17.8428 16.1642 17.4532 15.7924 17.0679 15.4161C16.7171 15.0737 16.3573 14.7406 15.9311 14.4914C15.7879 14.4074 15.7682 14.3072 15.7684 14.1652C15.7712 11.3496 15.7723 8.5341 15.7718 5.71876C15.7718 5.27752 15.9588 5.08322 16.3897 5.08282C20.1271 5.07969 23.8644 5.07748 27.6018 5.07617C27.8309 5.07617 27.8919 5.13859 27.8896 5.36205C27.8778 6.4541 27.8832 7.54634 27.8846 8.63859C27.886 9.75118 28.4548 10.3044 29.5971 10.3051C30.6826 10.3061 31.7681 10.3161 32.8532 10.2981C33.1396 10.2934 33.1961 10.3811 33.1949 10.645C33.184 12.793 33.1836 14.941 33.1937 17.0891C33.1937 17.32 33.1483 17.4345 32.89 17.473C32.2999 17.5609 31.7506 17.7808 31.2516 18.1003C31.0328 18.2406 30.8155 18.2868 30.5615 18.2864C27.2681 18.2813 23.9748 18.2749 20.6816 18.2927C20.2391 18.295 19.894 18.1994 19.6132 17.8644C19.4841 17.71 19.3312 17.5748 19.1337 17.3764ZM24.4712 12.2812C26.2346 12.2812 27.9974 12.2808 29.7596 12.2801C29.8945 12.2801 30.0329 12.2801 30.1631 12.2521C30.4217 12.1957 30.5645 12.0245 30.5722 11.7615C30.58 11.4985 30.436 11.3242 30.1862 11.2508C30.0715 11.217 29.9432 11.2195 29.8211 11.2195C26.2585 11.2182 22.6958 11.2178 19.1331 11.2183C18.9855 11.2183 18.8383 11.2105 18.6985 11.277C18.4863 11.3788 18.3821 11.551 18.3927 11.7731C18.4032 11.9952 18.5177 12.1722 18.7451 12.2339C18.8843 12.2716 19.0364 12.2787 19.1826 12.2789C20.9455 12.2821 22.7083 12.2829 24.4712 12.2812ZM24.5004 13.767C22.6883 13.767 20.8761 13.767 19.0639 13.767C18.6426 13.767 18.4004 13.9578 18.3887 14.28C18.3765 14.6144 18.6295 14.8193 19.0663 14.8279C19.1156 14.8291 19.1657 14.8279 19.2142 14.8279C22.7278 14.8279 26.2413 14.8279 29.7548 14.8279C29.914 14.8279 30.0758 14.8418 30.2304 14.7839C30.3176 14.7529 30.395 14.6997 30.4546 14.6297C30.5142 14.5597 30.5539 14.4755 30.5697 14.3855C30.5855 14.2956 30.5768 14.2031 30.5445 14.1175C30.5123 14.032 30.4575 13.9563 30.3859 13.8983C30.2326 13.7711 30.051 13.7644 29.8632 13.7644C28.0756 13.767 26.288 13.7679 24.5004 13.767ZM22.4627 8.6697C21.3052 8.6697 20.1478 8.66618 18.9903 8.67185C18.6277 8.67381 18.401 8.8779 18.3891 9.1806C18.3777 9.46726 18.5866 9.71968 18.9167 9.72105C21.2685 9.73201 23.6203 9.73201 25.972 9.72105C26.3081 9.71949 26.5073 9.47489 26.4972 9.1806C26.4875 8.89277 26.2679 8.69142 25.9352 8.67185C25.8494 8.66638 25.7629 8.67048 25.6766 8.67048L22.4627 8.6697Z" fill="#010101"/>
<path d="M24.6213 4.02038H24.1557C21.6276 4.02038 19.0992 4.04288 16.5715 4.00981C15.481 3.99553 14.6821 4.68312 14.702 5.85383C14.7471 8.46176 14.7119 11.0709 14.7219 13.6796C14.7231 13.9496 14.6678 14.0054 14.381 13.9997C13.062 13.9737 11.7423 13.9784 10.4233 13.9903C10.1771 13.9924 10.0653 13.9202 9.96369 13.6968C9.07589 11.7563 8.17119 9.82246 7.27245 7.88746C7.00814 7.31785 7.08232 7.1306 7.66365 6.86996C12.472 4.71443 17.2803 2.55838 22.0886 0.401802C22.6626 0.144492 22.8523 0.215521 23.12 0.790799C23.6102 1.8445 24.0995 2.89839 24.6213 4.02038Z" fill="#020202"/>
<path d="M29.8898 22.3526C29.8898 20.1628 31.6765 18.4137 33.9087 18.417C36.104 18.4203 37.8911 20.1876 37.8933 22.3573C37.8953 24.5369 36.0938 26.2962 33.8668 26.2903C31.6594 26.2832 29.8892 24.5308 29.8898 22.3526ZM36.7529 20.7179C36.7429 20.665 36.7296 20.6127 36.7131 20.5614C36.5676 20.1767 36.1243 20.1168 35.784 20.4483C34.899 21.3104 34.0184 22.1771 33.1424 23.0484C33.0018 23.1885 32.9171 23.2165 32.7707 23.0578C32.5225 22.7885 32.2552 22.5355 31.9885 22.2835C31.7026 22.0131 31.4066 21.9976 31.1757 22.2281C30.9448 22.4586 30.9625 22.7472 31.2414 23.028C31.655 23.4444 32.0732 23.8566 32.4959 24.2645C32.8081 24.5658 33.0866 24.5701 33.3934 24.2702C34.4433 23.244 35.4907 22.2154 36.5357 21.1842C36.6628 21.0578 36.7469 20.9167 36.7529 20.7179Z" fill="#020202"/>
<path d="M28.942 5.45508C30.2399 6.7336 31.5076 7.98219 32.7939 9.25113H30.5223C30.1526 9.25113 29.7829 9.24956 29.4133 9.25113C29.1333 9.2525 28.95 9.11748 28.947 8.84589C28.9352 7.72195 28.942 6.59859 28.942 5.45508Z" fill="#020202"/>
<path d="M33.8322 26.3575C36.0751 26.3575 37.8934 24.5686 37.8934 22.3618C37.8934 20.1551 36.0751 18.3662 33.8322 18.3662C31.5893 18.3662 29.7711 20.1551 29.7711 22.3618C29.7711 24.5686 31.5893 26.3575 33.8322 26.3575Z" fill="#020202"/>
</mask>
<g mask="url(#mask0_4062_14901)">
<rect width="38" height="35" fill="url(#paint0_linear_4062_14901)"/>
</g>
</g>
<defs>
<linearGradient id="paint0_linear_4062_14901" x1="12.538" y1="9.51975" x2="27.7041" y2="37.8611" gradientUnits="userSpaceOnUse">
<stop stop-color="#FDF294"/>
<stop offset="1" stop-color="#F68013"/>
</linearGradient>
<clipPath id="clip0_4062_14901">
<rect width="37.8933" height="34.8" fill="white"/>
</clipPath>
</defs>
</svg>
