<svg width="22" height="21" viewBox="0 0 22 21" fill="none" xmlns="http://www.w3.org/2000/svg">
<g clip-path="url(#clip0_4062_15059)">
<path d="M1.45581 15.6332V19.0372C1.45581 19.2443 1.62786 19.4169 1.84402 19.4169H4.53504C4.7468 19.4169 4.92326 19.2486 4.92326 19.0372V13.0488L2.96896 14.9601C2.55428 15.3613 2.0249 15.5943 1.45581 15.6332Z" fill="#12753C"/>
<path d="M6.26428 13.0059V19.0374C6.26428 19.2445 6.43633 19.417 6.6525 19.417H9.34352C9.55527 19.417 9.73173 19.2488 9.73173 19.0374V15.4866C9.11853 15.4737 8.54503 15.2364 8.1127 14.8136L6.26428 13.0059Z" fill="#12753C"/>
<path d="M11.0729 15.1127V19.0388C11.0729 19.2459 11.2449 19.4185 11.4611 19.4185H14.1521C14.3639 19.4185 14.5403 19.2502 14.5403 19.0388V11.7949L11.4567 14.8107C11.3376 14.9272 11.2096 15.0264 11.0729 15.1127Z" fill="#12753C"/>
<path d="M19.0886 7.3418L15.8815 10.4784V19.0381C15.8815 19.2452 16.0535 19.4178 16.2697 19.4178H18.9607C19.1725 19.4178 19.3489 19.2495 19.3489 19.0381V7.57909C19.2607 7.50574 19.1945 7.44103 19.146 7.39788L19.0886 7.3418Z" fill="#12753C"/>
<path d="M21.2899 1.78481C21.162 1.65106 20.9679 1.58203 20.7209 1.58203C20.6988 1.58203 20.6723 1.58203 20.6503 1.58203C19.3974 1.63812 18.1489 1.69852 16.8961 1.75461C16.7284 1.76324 16.499 1.77186 16.3182 1.94876C16.2608 2.00484 16.2167 2.06956 16.1814 2.14722C15.9961 2.53983 16.2564 2.79438 16.3799 2.91518L16.6931 3.22582C16.9093 3.44154 17.1299 3.65726 17.3505 3.86866L9.78032 11.2765L6.37904 7.95009C6.17611 7.75162 5.9026 7.63945 5.61144 7.63945C5.32028 7.63945 5.05118 7.75162 4.84825 7.95009L0.317629 12.3767C-0.105876 12.7908 -0.105876 13.4596 0.317629 13.8738L0.520558 14.0722C0.723487 14.2707 0.997001 14.3829 1.28816 14.3829C1.57932 14.3829 1.84842 14.2707 2.05135 14.0722L5.61144 10.5905L9.01271 13.9169C9.21564 14.1154 9.48916 14.2275 9.78032 14.2275C10.0715 14.2275 10.3406 14.1154 10.5479 13.9169L19.0886 5.56422L20.0547 6.50476C20.1694 6.61694 20.3282 6.77225 20.5709 6.77225C20.6723 6.77225 20.7738 6.74637 20.8797 6.69028C20.9503 6.65145 21.012 6.60831 21.065 6.55653C21.2547 6.37102 21.2899 6.13372 21.2988 5.9482C21.3341 5.15435 21.3738 4.36051 21.4135 3.56234L21.4708 2.36725C21.484 2.11702 21.4267 1.92287 21.2899 1.78481Z" fill="#12753C"/>
</g>
<defs>
<clipPath id="clip0_4062_15059">
<rect width="21.4727" height="21" fill="white"/>
</clipPath>
</defs>
</svg>
