<svg width="16" height="24" viewBox="0 0 16 24" fill="none" xmlns="http://www.w3.org/2000/svg">
<path d="M15.5337 21.4634C15.6001 21.6208 15.634 21.7806 15.634 21.9426C15.634 22.1671 15.5745 22.3758 15.455 22.5705C15.336 22.7646 15.1687 22.9133 14.9542 23.0159L13.9456 23.4881C13.5521 23.6671 13.158 23.7971 12.7633 23.8782C12.3686 23.9592 11.9699 24 11.5664 24C10.9176 24 10.2768 23.8921 9.64372 23.6764C9.01059 23.4607 8.40486 23.1517 7.82653 22.7501C7.24821 22.3484 6.70544 21.8622 6.19882 21.2926C5.6922 20.7224 5.23805 20.087 4.83754 19.3856C4.58219 18.9968 4.31401 18.5531 4.03243 18.0547C3.79398 17.6302 3.52173 17.1219 3.21507 16.529C2.90842 15.9366 2.59943 15.2785 2.28695 14.5561C1.96747 13.8332 1.71387 13.2018 1.52673 12.662C1.33959 12.1216 1.19442 11.6727 1.0924 11.3153C0.972888 10.8979 0.890687 10.5399 0.845796 10.242C0.681393 9.68873 0.56013 9.13839 0.482593 8.59096C0.405055 8.04353 0.366577 7.50135 0.366577 6.965C0.366577 6.26366 0.437119 5.58914 0.57762 4.94027C0.718121 4.2914 0.934411 3.688 1.22532 3.13008C1.51624 2.57216 1.88527 2.07312 2.33242 1.63296C2.77958 1.1928 3.30835 0.834843 3.91874 0.557923L4.91333 0.100274C5.07015 0.0332305 5.22756 0 5.38497 0C5.6065 0 5.81288 0.0612141 6.0041 0.184225C6.19474 0.307236 6.33816 0.476887 6.43318 0.69376L8.34715 5.03996C8.41419 5.19737 8.44742 5.35477 8.44742 5.51218C8.44742 5.74363 8.38795 5.95759 8.26844 6.15406C8.14893 6.35052 7.98103 6.49802 7.76415 6.59596L5.79656 7.50077C5.53654 7.62028 5.33774 7.79518 5.19899 8.02662C5.06082 8.25807 4.99145 8.50701 4.99145 8.77402C4.99145 8.9769 5.02934 9.16754 5.10571 9.34652L8.33607 16.7231C8.46258 17.007 8.63689 17.2157 8.86018 17.3492C9.08288 17.4827 9.32599 17.5498 9.58833 17.5498C9.76731 17.5498 9.94979 17.509 10.1358 17.4279L12.1034 16.5231C12.2584 16.4567 12.4147 16.4229 12.5721 16.4229C12.789 16.4229 12.9942 16.4841 13.1871 16.6071C13.3801 16.7301 13.5259 16.8986 13.6238 17.1131L15.5337 21.4634Z" fill="#E5811E"/>
</svg>
