<svg width="22" height="21" viewBox="0 0 22 21" fill="none" xmlns="http://www.w3.org/2000/svg">
<g clip-path="url(#clip0_4062_15071)">
<path d="M21.4727 0H0V21H21.4727V0Z" fill="white"/>
<path d="M5.94372 19.0167C4.96799 17.9324 3.99231 16.8046 3.37137 15.46C2.75047 14.0287 2.57306 12.3804 2.88353 10.819C3.19399 9.25749 3.90358 7.78274 4.92367 6.5249C4.83498 7.60927 5.23414 8.73699 5.98809 9.56112C5.54457 7.47915 6.25419 5.22366 7.6734 3.57545C9.09261 1.92724 11.0441 0.84282 13.0842 0.105469C12.0641 1.14646 11.9311 2.79467 12.3302 4.18268C12.7294 5.57065 13.5721 6.78514 14.326 8.04299C15.08 9.30083 15.7896 10.6021 15.8339 12.0334C16.2331 11.2961 16.6766 10.5587 16.9427 9.73459C17.2088 8.91046 17.3419 8.04299 17.1201 7.21886C17.9185 8.17311 18.362 9.12732 18.5837 10.3418C18.8055 11.5563 18.7611 12.8142 18.6281 14.0287C18.4507 15.3733 18.0959 16.7612 17.3419 17.889C16.4549 19.2336 15.0357 20.1878 13.4834 20.7083C10.7336 21.1854 8.02819 20.7951 5.94372 19.0167Z" fill="#FF4B00"/>
<path d="M9.31439 20.6216C12.9511 22.0096 16.5435 17.8023 14.5477 14.5492C14.5477 14.5058 14.5034 14.5058 14.5034 14.4625C14.6808 16.2408 14.2373 17.5421 13.3946 18.2794C13.8381 17.2385 13.5276 16.024 12.9954 14.983C12.4632 13.9854 11.7093 13.0745 11.1327 12.1203C10.5561 11.1227 10.1127 9.99491 10.3788 8.86719C9.31434 9.64793 8.56039 10.819 8.24993 12.0769C7.93946 13.3347 8.11687 14.7227 8.69345 15.8938C8.02819 15.4167 7.54034 14.636 7.49598 13.8119C6.78635 14.636 6.34287 15.7203 6.3872 16.8047C6.38724 18.4963 7.76208 20.0144 9.31439 20.6216Z" fill="#FFD83B"/>
</g>
<defs>
<clipPath id="clip0_4062_15071">
<rect width="21.4727" height="21" fill="white"/>
</clipPath>
</defs>
</svg>
