<svg width="22" height="16" viewBox="0 0 22 16" fill="none" xmlns="http://www.w3.org/2000/svg">
<path d="M19.9406 6.5H5.54055L9.00555 3.035C9.30105 2.7395 9.44055 2.387 9.44055 2C9.44055 1.262 8.8308 0.5 7.94055 0.5C7.5423 0.5 7.19505 0.64475 6.90555 0.935L0.937052 6.9035C0.691052 7.1495 0.440552 7.45325 0.440552 8C0.440552 8.54675 0.649802 8.81 0.925052 9.08525L6.90555 15.065C7.19505 15.3553 7.5423 15.5 7.94055 15.5C8.83155 15.5 9.44055 14.738 9.44055 14C9.44055 13.613 9.30105 13.2605 9.00555 12.965L5.54055 9.5H19.9406C20.7686 9.5 21.4406 8.828 21.4406 8C21.4406 7.172 20.7686 6.5 19.9406 6.5Z" fill="#E5811E"/>
</svg>
