<svg width="22" height="21" viewBox="0 0 22 21" fill="none" xmlns="http://www.w3.org/2000/svg">
<g clip-path="url(#clip0_4062_15077)">
<path d="M9.03345 19.0508V19.0565C9.03345 19.9606 9.78054 20.6936 10.702 20.6936C11.6234 20.6936 12.3705 19.9606 12.3705 19.0565C12.3705 19.0545 12.3705 19.0528 12.3705 19.0508H9.03345Z" fill="#D9ECFD"/>
<path d="M12.2663 19.0565H9.13777C8.61944 19.0565 8.19922 18.6442 8.19922 18.1357C8.19922 17.6271 8.61944 17.2148 9.13777 17.2148H12.2663C12.7846 17.2148 13.2048 17.6271 13.2048 18.1357C13.2048 18.6443 12.7846 19.0565 12.2663 19.0565Z" fill="#618BAA"/>
<path d="M10.3892 19.0565H9.13777C8.61927 19.0565 8.19922 18.6444 8.19922 18.1357C8.19922 17.8815 8.30434 17.6515 8.47411 17.4845C8.64388 17.318 8.87831 17.2148 9.13777 17.2148H10.3892C10.1297 17.2148 9.89529 17.318 9.72551 17.4845C9.55574 17.6515 9.45062 17.8815 9.45062 18.1357C9.45062 18.6444 9.87067 19.0565 10.3892 19.0565Z" fill="#456B93"/>
<path d="M12.2663 17.2147H9.13777C8.61944 17.2147 8.19922 16.8024 8.19922 16.2939C8.19922 15.7853 8.61944 15.373 9.13777 15.373H12.2663C12.7846 15.373 13.2048 15.7853 13.2048 16.2939C13.2048 16.8025 12.7846 17.2147 12.2663 17.2147Z" fill="#618BAA"/>
<path d="M10.3892 17.2147H9.13777C8.61927 17.2147 8.19922 16.8026 8.19922 16.2939C8.19922 16.0397 8.30434 15.8097 8.47411 15.6428C8.64388 15.4762 8.87831 15.373 9.13777 15.373H10.3892C10.1297 15.373 9.89529 15.4762 9.72551 15.6428C9.55574 15.8097 9.45062 16.0397 9.45062 16.2939C9.45062 16.8026 9.87067 17.2147 10.3892 17.2147Z" fill="#456B93"/>
<path d="M16.3955 7.94557C16.3955 4.88272 13.8831 2.39557 10.77 2.35976C7.68652 2.32432 5.11509 4.72941 5.0116 7.75322C4.94707 9.63825 5.83494 11.3228 7.23927 12.3799C7.84979 12.8394 8.1991 13.5583 8.1991 14.3133C8.1991 14.8988 8.68289 15.3734 9.27964 15.3734H12.1242C12.7209 15.3734 13.2047 14.8988 13.2047 14.3133V14.3132C13.2047 13.5468 13.5739 12.83 14.1909 12.36C15.5323 11.3381 16.3955 9.74086 16.3955 7.94557Z" fill="#FFE177"/>
<path d="M9.7672 15.0629C9.96284 15.2545 10.2327 15.3732 10.531 15.3732H9.27957C8.98132 15.3732 8.71143 15.2545 8.51579 15.0629C8.32016 14.871 8.19919 14.6058 8.19919 14.3132C8.19919 13.5581 7.85004 12.8394 7.23936 12.3798C5.83486 11.3227 4.9472 9.63813 5.01185 7.75306C5.1153 4.72941 7.68653 2.32416 10.77 2.35977C10.9585 2.36181 11.145 2.37327 11.3285 2.39292C8.56168 2.69291 6.35878 4.95901 6.26326 7.75306C6.1986 9.63813 7.08627 11.3227 8.49076 12.3798C9.10145 12.8394 9.45059 13.5581 9.45059 14.3132C9.45059 14.6058 9.57156 14.871 9.7672 15.0629Z" fill="#FFC85E"/>
<path d="M5.5102 9.33787C4.66583 6.29056 6.85708 3.08254 10.0579 2.70348C10.2294 2.68314 10.3517 2.53028 10.331 2.36195C10.3103 2.19366 10.1548 2.07407 9.98289 2.09396C6.40495 2.51779 3.96137 6.08838 4.90639 9.49895C5.004 9.68296 5.13198 9.75487 5.29036 9.71464C5.45709 9.67011 5.5555 9.50145 5.5102 9.33787Z" fill="black"/>
<path d="M11.4205 2.09398C11.249 2.07393 11.0933 2.19413 11.0729 2.3625C11.0525 2.53087 11.175 2.68357 11.3466 2.70358C14.0466 3.01904 16.0826 5.27225 16.0826 7.94475C16.0826 9.58734 15.3232 11.1079 13.9991 12.1166C13.3125 12.6391 12.8919 13.4578 12.8919 14.3125C12.8919 14.8261 12.3925 15.0683 11.9534 15.0656V9.24667H12.6482C13.3727 9.24667 13.9622 8.66833 13.9622 7.95748C13.9622 7.24663 13.3727 6.6683 12.6482 6.6683H12.6417C11.9171 6.6683 11.3277 7.24663 11.3277 7.95748V8.63277H10.0763V7.95748C10.0763 7.24663 9.48682 6.6683 8.7623 6.6683H8.75571C8.03119 6.6683 7.44173 7.24663 7.44173 7.95748C7.44173 8.66833 8.03119 9.24667 8.75571 9.24667H9.45053V15.0656C9.01091 15.0685 8.51198 14.8265 8.51198 14.3125C8.51198 13.4594 8.1074 12.6456 7.42976 12.1356C6.84139 11.6926 6.3606 11.1472 6.00082 10.5144C5.9166 10.3664 5.72609 10.3133 5.57518 10.3959C5.42426 10.4785 5.37019 10.6655 5.45437 10.8135C5.85595 11.5197 6.39238 12.1284 7.04887 12.6227C7.57321 13.0173 7.88627 13.649 7.88627 14.3125C7.88627 14.6741 8.07519 15.0911 8.35534 15.3352C8.07649 15.5552 7.88627 15.9463 7.88627 16.2934C7.88627 16.6596 8.05075 16.9887 8.31079 17.2138C8.05746 17.4332 7.88627 17.8089 7.88627 18.1351C7.92382 18.711 8.20722 19.0987 8.73648 19.2983C8.85853 20.2562 9.6931 20.9999 10.7019 20.9999C11.7107 20.9999 12.5453 20.2562 12.6674 19.2984C13.1393 19.1422 13.5176 18.6245 13.5176 18.1351C13.5176 17.7689 13.3531 17.4398 13.0931 17.2146C13.3466 16.995 13.5176 16.6199 13.5176 16.2934C13.5176 15.9061 13.3337 15.5604 13.0474 15.3352C13.3355 15.0846 13.5176 14.7191 13.5176 14.3125C13.5176 13.6533 13.8581 13.0008 14.3827 12.6015C15.8607 11.4756 16.7083 9.77834 16.7083 7.94475C16.7083 4.96146 14.4351 2.44615 11.4205 2.09398ZM11.9534 7.95748C11.9534 7.58513 12.2621 7.28219 12.6417 7.28219H12.6482C13.0277 7.28219 13.3365 7.58513 13.3365 7.95748C13.3365 8.32983 13.0277 8.63277 12.6482 8.63277H11.9534V7.95748ZM8.75571 8.63277C8.3762 8.63277 8.06743 8.32983 8.06743 7.95748C8.06743 7.58513 8.3762 7.28219 8.75571 7.28219H8.76226C9.14177 7.28219 9.45053 7.58513 9.45053 7.95748V8.63277H8.75571ZM10.0763 9.24667H11.3277V15.0656H10.0763V9.24667ZM10.702 20.386C10.0621 20.386 9.52478 19.9487 9.38312 19.3628H12.0208C11.8792 19.9487 11.3418 20.386 10.702 20.386ZM12.2662 15.6794C12.6113 15.6794 12.8919 15.9548 12.8919 16.2933C12.8562 16.6675 12.6476 16.8721 12.2662 16.9072H11.8145C11.6417 16.9072 11.5016 17.0446 11.5016 17.2142C11.5016 17.3837 11.6417 17.5211 11.8145 17.5211H12.2662C12.6113 17.5211 12.8919 17.7965 12.8919 18.135C12.8919 18.4518 12.6022 18.7489 12.2662 18.7489H9.13772C8.74991 18.7061 8.54134 18.5015 8.51202 18.135C8.54781 17.7608 8.75638 17.5562 9.13772 17.5211H10.4509C10.6236 17.5211 10.7637 17.3837 10.7637 17.2142C10.7637 17.0446 10.6237 16.9072 10.4509 16.9072H9.13772C8.79271 16.9072 8.51202 16.6318 8.51202 16.2933C8.54781 15.9192 8.75638 15.7145 9.13772 15.6794H12.2662Z" fill="black"/>
<path d="M10.702 1.47335C10.5292 1.47335 10.3892 1.33596 10.3892 1.16641V0.306949C10.3892 0.13739 10.5292 0 10.702 0C10.8748 0 11.0149 0.13739 11.0149 0.306949V1.16641C11.0149 1.33596 10.8748 1.47335 10.702 1.47335Z" fill="black"/>
<path d="M5.86461 3.43838C5.78457 3.43838 5.70448 3.40842 5.64341 3.34851L5.02401 2.74079C4.90183 2.62087 4.90183 2.42656 5.02401 2.30672C5.14619 2.18681 5.34428 2.18685 5.46642 2.30668L6.08582 2.9144C6.208 3.03431 6.208 3.22863 6.08582 3.34847C6.02475 3.40842 5.9447 3.43838 5.86461 3.43838Z" fill="black"/>
<path d="M16.1587 13.5379C16.0786 13.5379 15.9985 13.508 15.9374 13.4481L15.3181 12.8404C15.1959 12.7205 15.1959 12.5262 15.3181 12.4063C15.4403 12.2864 15.6383 12.2864 15.7605 12.4063L16.3799 13.014C16.5021 13.1339 16.5021 13.3282 16.3799 13.4481C16.3188 13.508 16.2387 13.5379 16.1587 13.5379Z" fill="black"/>
<path d="M3.86096 8.18616H2.98497C2.81219 8.18616 2.67212 8.04877 2.67212 7.87921C2.67212 7.70966 2.81219 7.57227 2.98497 7.57227H3.86096C4.03374 7.57227 4.17381 7.70966 4.17381 7.87921C4.17381 8.04877 4.03374 8.18616 3.86096 8.18616Z" fill="black"/>
<path d="M18.4191 8.18616H17.5431C17.3703 8.18616 17.2302 8.04877 17.2302 7.87921C17.2302 7.70966 17.3703 7.57227 17.5431 7.57227H18.4191C18.5919 7.57227 18.7319 7.70966 18.7319 7.87921C18.7319 8.04877 18.5918 8.18616 18.4191 8.18616Z" fill="black"/>
<path d="M5.24521 13.538C5.16516 13.538 5.08508 13.508 5.02401 13.4481C4.90183 13.3282 4.90183 13.1339 5.02401 13.014L5.64341 12.4063C5.76559 12.2865 5.96368 12.2864 6.08582 12.4063C6.208 12.5262 6.208 12.7205 6.08582 12.8404L5.46642 13.4481C5.40535 13.508 5.32526 13.538 5.24521 13.538Z" fill="black"/>
<path d="M15.5393 3.43837C15.4593 3.43837 15.3792 3.40841 15.3181 3.3485C15.1959 3.22858 15.1959 3.03426 15.3181 2.91439L15.9375 2.30667C16.0597 2.18684 16.2578 2.18684 16.3799 2.30667C16.5021 2.42659 16.5021 2.62091 16.3799 2.74078L15.7605 3.3485C15.6995 3.40841 15.6194 3.43837 15.5393 3.43837Z" fill="black"/>
</g>
<defs>
<clipPath id="clip0_4062_15077">
<rect width="21.4038" height="21" fill="white"/>
</clipPath>
</defs>
</svg>
