<svg width="35" height="32" viewBox="0 0 35 32" fill="none" xmlns="http://www.w3.org/2000/svg">
<g clip-path="url(#clip0_4062_14784)">
<mask id="mask0_4062_14784" style="mask-type:alpha" maskUnits="userSpaceOnUse" x="0" y="0" width="35" height="32">
<path d="M34.5308 0.263206V0.725019C34.4555 0.804716 34.3644 0.867654 34.2635 0.909788C34.1625 0.951922 34.054 0.972319 33.9448 0.96967C33.8083 0.96967 33.6718 0.960736 33.5354 0.963485C33.429 0.963485 33.3225 0.979978 33.2154 0.988912V21.51C33.4549 21.51 33.6828 21.5169 33.91 21.51C34.027 21.4992 34.1448 21.5177 34.2531 21.5638C34.3613 21.61 34.4565 21.6824 34.5301 21.7746V22.1705C34.4818 22.2471 34.4179 22.3125 34.3427 22.3623C34.2674 22.4122 34.1825 22.4454 34.0935 22.4598C34.0068 22.4704 33.9195 22.4746 33.8322 22.4722H26.7256C22.3808 22.4722 18.037 22.4722 13.694 22.4722H1.42941C1.26566 22.4722 1.10192 22.4722 0.938169 22.4639C0.671398 22.4433 0.515156 22.2715 0.500828 21.9959C0.488547 21.7327 0.612722 21.5664 0.880857 21.5313C1.07618 21.5143 1.27228 21.5078 1.4683 21.5121C1.52288 21.5121 1.57746 21.519 1.63136 21.5162C1.68411 21.5176 1.7355 21.4994 1.77577 21.465C1.81603 21.4307 1.84234 21.3826 1.84969 21.33C1.86514 21.2494 1.87313 21.1675 1.87357 21.0853C1.87357 19.9693 1.87357 18.8532 1.87357 17.7372C1.87357 12.2504 1.87357 6.76387 1.87357 1.27755C1.87357 1.22807 1.87357 1.17859 1.87357 1.12911C1.87016 1.00884 1.85174 0.987538 1.73302 0.975168C1.69004 0.970357 1.64569 0.975168 1.60203 0.975168C1.41645 0.975168 1.23087 0.975168 1.04597 0.96486C0.94286 0.96096 0.84114 0.939586 0.745084 0.901635C0.556775 0.817794 0.491959 0.653548 0.500828 0.454941C0.509698 0.256334 0.597712 0.125074 0.778516 0.0687222C0.887877 0.0367096 1.00101 0.0196059 1.11488 0.0178678C1.53584 0.00755944 1.95613 0 2.37641 0C5.0564 0 7.73616 0 10.4157 0H16.0977L25.1365 0.00893388H33.7162C33.7762 0.00893388 33.8363 0.00893388 33.8963 0.00893388C34.1372 0.0158061 34.3575 0.0810922 34.5308 0.263206ZM28.6312 6.83305H28.829C29.3476 6.83305 29.8661 6.83305 30.3846 6.83305C30.4555 6.83546 30.5265 6.83202 30.5968 6.82274C30.6498 6.81891 30.6997 6.79596 30.7373 6.75809C30.7749 6.72023 30.7977 6.66998 30.8015 6.61657C30.809 6.57876 30.8131 6.54035 30.8138 6.50181C30.8138 6.25441 30.8179 6.00769 30.8199 5.76029C30.8203 5.7548 30.8203 5.74929 30.8199 5.7438C30.8042 5.52183 30.7094 5.4318 30.489 5.43111H23.6417C23.6198 5.43111 23.598 5.43111 23.5734 5.43111C23.5268 5.42634 23.4799 5.43787 23.4406 5.46377C23.4014 5.48967 23.3721 5.52836 23.3578 5.57337C23.3343 5.62857 23.3215 5.68785 23.3203 5.74792C23.3203 6.09978 23.3203 6.45164 23.3237 6.8035C23.3271 6.99386 23.4192 7.08457 23.6089 7.09144C23.7563 7.09694 23.9037 7.09144 24.051 7.09144C24.6186 7.07707 25.1864 7.10994 25.7485 7.18972C26.1647 7.25363 26.5352 7.41375 26.8204 7.73949C26.8941 7.82333 26.9521 7.92092 27.0401 8.04325H26.8252C25.7663 8.04325 24.7076 8.04325 23.6492 8.04325C23.3974 8.04325 23.3258 8.11197 23.3224 8.36487C23.3224 8.58478 23.3224 8.80469 23.3224 9.0246C23.3224 9.38608 23.3722 9.43693 23.7249 9.43693H27.1431C27.1179 9.52146 27.1049 9.57987 27.0838 9.63416C26.9351 9.99928 26.6609 10.2983 26.3114 10.4767C25.921 10.6899 25.4863 10.8076 25.0424 10.8203C24.59 10.8382 24.137 10.8409 23.6846 10.8499C23.4001 10.856 23.3244 10.9323 23.323 11.2134C23.323 11.4773 23.3312 11.7419 23.3183 12.0051C23.3127 12.0975 23.3266 12.1901 23.3592 12.2767C23.3918 12.3633 23.4423 12.4419 23.5073 12.5074C24.0531 13.1074 24.5989 13.7066 25.129 14.321C25.9157 15.2343 26.6901 16.1586 27.4658 17.0816C27.5168 17.1493 27.5834 17.2035 27.6598 17.2394C27.7363 17.2753 27.8203 17.2919 27.9045 17.2878C28.3685 17.2781 28.8324 17.2843 29.2964 17.2843C29.3454 17.2866 29.3944 17.2848 29.4431 17.2788C29.4864 17.2724 29.5275 17.2552 29.5626 17.2289C29.5977 17.2025 29.6258 17.1678 29.6444 17.1278C29.6629 17.0878 29.6713 17.0438 29.6688 16.9998C29.6663 16.9557 29.653 16.913 29.63 16.8754C29.6099 16.8426 29.5871 16.8116 29.5618 16.7826C28.3733 15.3257 27.1834 13.8702 25.9143 12.4827C25.8857 12.4525 25.8618 12.4174 25.8215 12.3672C25.9102 12.3439 25.9832 12.326 26.0549 12.3054C26.396 12.2071 26.7447 12.1329 27.0735 12.0044C28.1652 11.5756 28.8706 10.7921 29.1204 9.62111C29.1593 9.43968 29.1593 9.43968 29.3428 9.43899H30.5211C30.6166 9.43899 30.7169 9.43143 30.7674 9.34072C30.8026 9.27325 30.8215 9.19839 30.8226 9.12218C30.8295 8.88578 30.8261 8.64937 30.8226 8.41297C30.8226 8.11334 30.7544 8.04599 30.4556 8.04531C30.068 8.04531 29.6805 8.04531 29.2957 8.04531C29.149 8.04531 29.1258 8.03225 29.0972 7.90374C29.0236 7.61044 28.9087 7.32926 28.756 7.06876C28.7192 6.99935 28.6844 6.93201 28.6312 6.83305ZM10.2424 7.48247C10.46 7.48247 10.6784 7.48247 10.8967 7.48247C10.9487 7.48192 11.0002 7.49213 11.0481 7.51246C11.096 7.53279 11.1392 7.56282 11.1751 7.60067C11.6577 8.0941 12.1416 8.58615 12.627 9.07683C12.7341 9.18541 12.7498 9.31873 12.7436 9.45686C12.7382 9.56682 12.7116 9.67471 12.7041 9.78398C12.6831 9.92502 12.6794 10.0681 12.6931 10.2101C12.8105 10.8629 13.1707 11.3357 13.8039 11.5343C14.437 11.7329 14.9938 11.5343 15.4414 11.0622C15.833 10.6458 15.919 10.1331 15.7893 9.58675C15.7592 9.48105 15.7595 9.36892 15.79 9.26335C15.8206 9.15778 15.8802 9.06309 15.9619 8.99024C16.4018 8.555 16.8373 8.11517 17.2685 7.67077C17.3438 7.58297 17.4432 7.5197 17.5543 7.48898C17.6653 7.45827 17.7829 7.4615 17.8921 7.49828C17.9758 7.52286 18.0614 7.54033 18.148 7.55051C19.2164 7.66802 20.1948 6.56503 19.7854 5.44348C19.5569 4.8188 19.1182 4.42227 18.4509 4.35699C17.7591 4.28826 17.2119 4.56315 16.8646 5.18165C16.6545 5.55756 16.6299 5.96715 16.7281 6.38223C16.7567 6.47982 16.7574 6.58354 16.7301 6.68151C16.7028 6.77947 16.6487 6.86772 16.5739 6.93613C16.1191 7.38695 15.6679 7.84189 15.2203 8.30095C15.1766 8.35008 15.1232 8.38946 15.0635 8.41657C15.0038 8.44367 14.9392 8.45789 14.8737 8.45833C14.4816 8.45833 14.0891 8.45833 13.6961 8.45833C13.6169 8.45601 13.5389 8.43738 13.4671 8.40357C13.3953 8.36977 13.3311 8.32152 13.2785 8.26178C12.8398 7.81715 12.3998 7.37389 11.9522 6.93888C11.8822 6.87819 11.8285 6.80077 11.7959 6.71371C11.7634 6.62666 11.7531 6.53276 11.7659 6.44064C11.7922 6.22799 11.8031 6.01371 11.7987 5.79947C11.7909 5.49476 11.6901 5.19988 11.5099 4.95502C11.3296 4.71016 11.0788 4.52724 10.7916 4.43121C10.5787 4.35955 10.3536 4.33174 10.1298 4.34943C9.76805 4.37634 9.4267 4.52868 9.16386 4.78052C8.90102 5.03236 8.73292 5.36814 8.68817 5.73074C8.66268 5.96604 8.68002 6.20405 8.73934 6.43308C8.76125 6.51304 8.76114 6.5975 8.73903 6.67741C8.71691 6.75731 8.67362 6.82964 8.6138 6.88665C8.5831 6.91826 8.55171 6.9485 8.52101 6.97943C8.09663 7.40688 7.6668 7.82952 7.24993 8.26453C7.07117 8.45008 6.88764 8.52086 6.63588 8.43771C6.33604 8.34335 6.01347 8.35279 5.71958 8.46451C5.00387 8.71535 4.53992 9.49535 4.70093 10.3152C4.86741 11.1687 5.73254 11.7659 6.57584 11.5749C7.10324 11.4546 7.47371 11.1179 7.71456 10.6368C7.80537 10.4597 7.8502 10.2623 7.84487 10.063C7.84151 9.90403 7.82645 9.74553 7.79984 9.58881C7.75686 9.36202 7.79166 9.17647 7.96359 9.00261C8.4214 8.54698 8.87034 8.08173 9.31996 7.61785C9.36051 7.57314 9.41013 7.53773 9.46546 7.51401C9.52078 7.4903 9.58052 7.47884 9.64063 7.48041C9.83849 7.48453 10.0404 7.48247 10.2424 7.48247ZM6.02728 18.1983C6.56219 18.1983 7.09641 18.1983 7.63132 18.1983C7.99702 18.1983 8.22286 17.9702 8.22422 17.5991C8.22422 16.5325 8.22422 15.4662 8.22422 14.4C8.22422 14.0303 7.99975 13.8008 7.632 13.7994C6.56765 13.7962 5.50352 13.7962 4.43962 13.7994C4.0787 13.7994 3.86378 14.0283 3.859 14.3918V14.4413C3.859 15.4799 3.859 16.5188 3.859 17.5578C3.85581 17.6506 3.86686 17.7433 3.89175 17.8327C3.96407 18.0616 4.17149 18.1963 4.43757 18.1969C4.97112 18.1997 5.50056 18.1983 6.02728 18.1983ZM14.9917 13.6627H9.83713C9.78254 13.6627 9.72796 13.6627 9.67338 13.6627C9.58482 13.6664 9.50129 13.7052 9.44089 13.7705C9.38049 13.8358 9.34807 13.9225 9.35066 14.0118C9.34589 14.3361 9.3452 14.6605 9.35066 14.9849C9.35062 15.0741 9.38506 15.1599 9.44669 15.224C9.50832 15.2882 9.59231 15.3256 9.68089 15.3285C9.73479 15.3333 9.79005 15.3285 9.84463 15.3285H20.1429C20.1866 15.3285 20.2303 15.3285 20.2739 15.3285C20.5134 15.3202 20.6444 15.1876 20.6465 14.9436C20.6499 14.6468 20.6465 14.3499 20.6465 14.0503C20.6465 13.7939 20.5161 13.664 20.2658 13.6565C20.2221 13.6565 20.1784 13.6565 20.1348 13.6565L14.9917 13.6627ZM14.9917 18.1035H20.1491C20.2092 18.1056 20.2693 18.1042 20.3292 18.0994C20.4094 18.0949 20.4853 18.0609 20.5421 18.0037C20.599 17.9465 20.633 17.8702 20.6376 17.7894C20.6465 17.4458 20.6458 17.0967 20.6376 16.7503C20.6341 16.6723 20.6029 16.5981 20.5497 16.5412C20.4965 16.4843 20.4248 16.4486 20.3476 16.4404C20.2936 16.4336 20.239 16.4313 20.1846 16.4335H9.80984C9.76067 16.4318 9.71145 16.4332 9.66246 16.4377C9.5765 16.4433 9.49605 16.4822 9.43793 16.5463C9.37981 16.6103 9.34854 16.6945 9.35066 16.7813C9.34566 17.1056 9.34566 17.43 9.35066 17.7544C9.34932 17.8435 9.38245 17.9298 9.44306 17.9948C9.50366 18.0598 9.58699 18.0985 9.67543 18.1028C9.73001 18.1076 9.78459 18.1028 9.83917 18.1028L14.9917 18.1035Z" fill="black"/>
<path d="M17.976 23.3906C18.1247 23.3831 18.2386 23.3721 18.3526 23.3721C18.8602 23.3721 19.3678 23.3721 19.8754 23.3721C20.6941 23.3693 21.5129 23.3657 22.3316 23.3611H22.4135C22.5148 23.3527 22.6163 23.3754 22.7045 23.4264C22.7927 23.4773 22.8635 23.554 22.9075 23.6463C23.1674 24.1163 23.4355 24.5823 23.7016 25.0489C24.7774 26.936 25.8529 28.8234 26.9281 30.7109C26.9916 30.8187 27.0411 30.9341 27.0755 31.0545C27.1396 31.2909 27.0312 31.4827 26.8026 31.5576C26.7197 31.5847 26.6332 31.5991 26.5461 31.6002C25.3889 31.6126 24.232 31.6226 23.0753 31.6304C22.9518 31.6357 22.8293 31.6055 22.7221 31.5433C22.615 31.4811 22.5276 31.3896 22.4701 31.2793C21.0078 28.7219 19.5445 26.1654 18.0803 23.6099C18.0428 23.5508 18.0189 23.4848 17.976 23.3906Z" fill="black"/>
<path d="M17.0876 23.3956C17.0501 23.4643 17.0289 23.511 17.0044 23.5536C15.5452 26.1037 14.0851 28.6537 12.6241 31.2038C12.6057 31.2368 12.5859 31.2725 12.5655 31.3028C12.503 31.4135 12.4113 31.5046 12.3005 31.5659C12.1896 31.6272 12.064 31.6562 11.9378 31.6498C11.5837 31.6443 11.2289 31.6381 10.8748 31.634C10.1243 31.6237 9.36967 31.6182 8.61712 31.6038C8.4814 31.6029 8.34651 31.5823 8.21662 31.5426C8.16709 31.5301 8.12068 31.5073 8.08034 31.4758C8.04001 31.4442 8.00662 31.4046 7.98231 31.3593C7.95799 31.3141 7.94328 31.2643 7.9391 31.213C7.93492 31.1617 7.94137 31.1102 7.95804 31.0615C7.99382 30.9293 8.04633 30.8023 8.11428 30.6836C9.33465 28.5527 10.5573 26.4223 11.7822 24.2924C11.9023 24.0828 12.0251 23.8753 12.1438 23.6657C12.1886 23.5745 12.259 23.4986 12.3462 23.4473C12.4333 23.396 12.5335 23.3716 12.6344 23.377C13.6653 23.377 14.6962 23.3674 15.7271 23.3633C16.0976 23.3633 16.4688 23.3633 16.8399 23.3708C16.9143 23.3729 16.988 23.386 17.0876 23.3956Z" fill="black"/>
<path d="M10.2513 5.37351C10.3285 5.37041 10.4055 5.38299 10.4778 5.4105C10.55 5.43801 10.6161 5.4799 10.6719 5.53365C10.7278 5.58741 10.7724 5.65194 10.803 5.7234C10.8336 5.79487 10.8496 5.8718 10.85 5.94962C10.8505 6.02745 10.8354 6.10457 10.8056 6.17639C10.7759 6.24821 10.7321 6.31327 10.6769 6.36769C10.6216 6.42211 10.5561 6.46478 10.4841 6.49315C10.4122 6.52153 10.3353 6.53503 10.2581 6.53285C10.1809 6.53595 10.1038 6.52337 10.0316 6.49586C9.95929 6.46834 9.89326 6.42646 9.83739 6.3727C9.78152 6.31895 9.73696 6.25442 9.70637 6.18295C9.67577 6.11149 9.65977 6.03456 9.65931 5.95673C9.65885 5.87891 9.67395 5.80179 9.7037 5.72997C9.73345 5.65814 9.77724 5.59308 9.83248 5.53866C9.88771 5.48425 9.95325 5.44158 10.0252 5.4132C10.0971 5.38483 10.174 5.37133 10.2513 5.37351Z" fill="black"/>
<path d="M6.81873 9.99059C6.81927 10.0664 6.80492 10.1416 6.7765 10.2118C6.74809 10.282 6.70617 10.3459 6.65316 10.3997C6.60015 10.4536 6.53709 10.4963 6.46762 10.5255C6.39815 10.5548 6.32362 10.5698 6.24834 10.5699C6.17057 10.5689 6.09376 10.5525 6.02232 10.5215C5.95087 10.4906 5.88619 10.4457 5.832 10.3896C5.7778 10.3334 5.73515 10.267 5.70649 10.1941C5.67783 10.1213 5.66373 10.0435 5.66499 9.96517C5.67104 9.81216 5.73691 9.66776 5.84823 9.56348C5.95956 9.4592 6.10731 9.4035 6.25926 9.40852C6.33444 9.40799 6.40895 9.42283 6.47828 9.45214C6.5476 9.48144 6.61031 9.5246 6.66261 9.57901C6.7149 9.63342 6.7557 9.69795 6.78254 9.76869C6.80937 9.83943 6.82168 9.91492 6.81873 9.99059Z" fill="black"/>
<path d="M14.2672 10.5697C14.1906 10.5695 14.1147 10.5541 14.0441 10.5243C13.9734 10.4946 13.9092 10.4511 13.8553 10.3963C13.8014 10.3415 13.7587 10.2765 13.7297 10.2051C13.7008 10.1337 13.6861 10.0572 13.6865 9.98005C13.6856 9.82568 13.7456 9.67726 13.8534 9.56746C13.9611 9.45765 14.1077 9.39545 14.261 9.39454C14.4143 9.39363 14.5616 9.45408 14.6706 9.5626C14.7797 9.67111 14.8414 9.81881 14.8423 9.97318C14.8443 10.129 14.7849 10.2793 14.6771 10.3911C14.5693 10.503 14.4219 10.5672 14.2672 10.5697Z" fill="black"/>
<path d="M18.2653 5.37307C18.3796 5.37212 18.4916 5.40544 18.587 5.46881C18.6824 5.53218 18.757 5.62271 18.8012 5.72889C18.8453 5.83507 18.8571 5.95208 18.8351 6.06504C18.813 6.178 18.7581 6.28179 18.6772 6.36319C18.5964 6.4446 18.4934 6.49994 18.3812 6.52216C18.2691 6.54439 18.1529 6.5325 18.0475 6.488C17.9421 6.44351 17.8522 6.36842 17.7893 6.27231C17.7264 6.17619 17.6933 6.06339 17.6942 5.94827C17.6942 5.87273 17.709 5.79794 17.7377 5.72815C17.7664 5.65836 17.8085 5.59495 17.8615 5.54154C17.9145 5.48813 17.9775 5.44576 18.0468 5.41685C18.116 5.38794 18.1903 5.37307 18.2653 5.37307Z" fill="black"/>
</mask>
<g mask="url(#mask0_4062_14784)">
<rect x="0.5" width="34.03" height="31.65" fill="url(#paint0_linear_4062_14784)"/>
</g>
</g>
<defs>
<linearGradient id="paint0_linear_4062_14784" x1="11.7281" y1="8.60857" x2="25.5164" y2="34.1255" gradientUnits="userSpaceOnUse">
<stop stop-color="#FDF294"/>
<stop offset="1" stop-color="#F68013"/>
</linearGradient>
<clipPath id="clip0_4062_14784">
<rect width="34.03" height="31.65" fill="white" transform="translate(0.5)"/>
</clipPath>
</defs>
</svg>
