<svg width="250" height="7" viewBox="0 0 250 7" fill="none" xmlns="http://www.w3.org/2000/svg">
<g clip-path="url(#clip0_4062_15041)">
<mask id="mask0_4062_15041" style="mask-type:alpha" maskUnits="userSpaceOnUse" x="0" y="0" width="251" height="7">
<path d="M125.002 5.34375C124.597 5.34231 124.201 5.222 123.865 4.99802C123.528 4.77404 123.267 4.45642 123.112 4.08528C122.958 3.71415 122.919 3.30612 122.999 2.91274C123.079 2.51935 123.275 2.15824 123.562 1.87501C123.849 1.59178 124.214 1.39912 124.612 1.32136C125.009 1.24361 125.421 1.28424 125.796 1.43813C126.17 1.59202 126.49 1.85227 126.715 2.18602C126.94 2.51976 127.06 2.91203 127.06 3.31331C127.059 3.58043 127.006 3.84484 126.902 4.09144C126.798 4.33804 126.647 4.56201 126.456 4.75056C126.265 4.9391 126.038 5.08853 125.788 5.19031C125.539 5.29209 125.272 5.34423 125.002 5.34375ZM125.002 2.06296C124.75 2.0644 124.505 2.13951 124.297 2.27881C124.088 2.41811 123.926 2.61538 123.831 2.84576C123.735 3.07614 123.711 3.32933 123.76 3.57341C123.81 3.81749 123.932 4.04155 124.11 4.21736C124.288 4.39317 124.514 4.51286 124.761 4.56135C125.008 4.60984 125.263 4.58496 125.496 4.48985C125.728 4.39473 125.927 4.23363 126.067 4.02686C126.207 3.82008 126.282 3.57688 126.283 3.32789C126.284 3.16133 126.251 2.99633 126.186 2.84241C126.122 2.68848 126.028 2.54868 125.909 2.43108C125.79 2.31348 125.648 2.2204 125.492 2.15722C125.337 2.09403 125.17 2.062 125.002 2.06296Z" fill="black"/>
<path d="M125.002 2.06729C125.707 2.06729 126.279 2.63198 126.279 3.32857C126.279 4.02515 125.707 4.58984 125.002 4.58984C124.296 4.58984 123.724 4.02515 123.724 3.32857C123.724 2.63198 124.296 2.06729 125.002 2.06729Z" fill="black"/>
<path d="M125.002 6.4375C124.381 6.43606 123.775 6.25247 123.259 5.90992C122.744 5.56738 122.342 5.08124 122.106 4.51294C121.869 3.94464 121.808 3.31966 121.93 2.71697C122.052 2.11427 122.352 1.5609 122.791 1.12677C123.231 0.692632 123.79 0.397208 124.399 0.277819C125.008 0.15843 125.639 0.220432 126.213 0.455992C126.786 0.691552 127.276 1.0901 127.621 1.60129C127.966 2.11248 128.15 2.71337 128.15 3.32805C128.147 4.1531 127.814 4.94342 127.224 5.52614C126.634 6.10886 125.835 6.43654 125.002 6.4375ZM125.002 1.29761C124.597 1.29905 124.201 1.41935 123.864 1.64334C123.528 1.86732 123.267 2.18493 123.112 2.55607C122.958 2.92721 122.919 3.33523 122.999 3.72862C123.079 4.122 123.275 4.48311 123.562 4.76634C123.849 5.04958 124.214 5.24223 124.612 5.31999C125.009 5.39775 125.421 5.35711 125.796 5.20322C126.17 5.04933 126.49 4.78908 126.715 4.45534C126.94 4.12159 127.06 3.72932 127.06 3.32805C127.059 3.06093 127.006 2.79652 126.902 2.54991C126.798 2.30331 126.647 2.07934 126.456 1.8908C126.264 1.70225 126.038 1.55283 125.788 1.45105C125.539 1.34927 125.272 1.29713 125.002 1.29761Z" fill="black"/>
<path d="M12.4958 3.4638C11.9285 3.45638 11.3746 3.63448 10.92 3.9705C10.5569 4.23569 10.2845 4.60461 10.1395 5.02764C9.76942 4.46043 9.2284 4.02296 8.59314 3.7773C8.04186 3.99144 7.54243 4.31838 7.12751 4.73674C6.71259 5.15509 6.39152 5.65544 6.18529 6.20508C5.298 4.76882 3.75167 4.0507 2.43362 3.68617C1.63933 3.47371 0.822449 3.35502 0 3.33257C0.823147 3.30936 1.64037 3.18695 2.43362 2.96804C3.75167 2.60351 5.298 1.89632 6.18529 0.452773C6.61237 1.74686 7.6948 2.47957 8.59314 2.88784C9.22717 2.63644 9.76724 2.19719 10.1395 1.63021C10.2479 1.95159 10.4322 2.24275 10.677 2.47957C11.1731 2.94585 11.8339 3.20105 12.5179 3.1904L12.4958 3.4638Z" fill="black"/>
<path d="M9.87439 3.86719V3.32768V2.78817H122.944V3.32768V3.86719H9.87439Z" fill="black"/>
<path d="M247.57 3.68617C246.248 4.0507 244.702 4.77976 243.818 6.20508C243.611 5.65532 243.29 5.15495 242.874 4.73663C242.459 4.3183 241.959 3.99142 241.407 3.7773C240.772 4.02296 240.231 4.46043 239.861 5.02764C239.717 4.60361 239.445 4.23416 239.08 3.9705C238.625 3.63448 238.072 3.45638 237.504 3.4638V3.1904C238.188 3.20183 238.85 2.94652 239.345 2.47957C239.591 2.24429 239.774 1.95253 239.879 1.63021C240.251 2.19719 240.791 2.63644 241.425 2.88784C241.976 2.66997 242.475 2.34093 242.89 1.92169C243.305 1.50245 243.628 1.00219 243.837 0.452773C244.72 1.9109 246.267 2.61444 247.588 2.96804C248.381 3.18683 249.197 3.30924 250.018 3.33257C249.191 3.3537 248.369 3.4724 247.57 3.68617Z" fill="black"/>
<path d="M240.126 3.86719H127.06V2.78817H240.126V3.86719Z" fill="black"/>
</mask>
<g mask="url(#mask0_4062_15041)">
<rect y="-1.78125" width="250" height="10" fill="url(#paint0_linear_4062_15041)"/>
</g>
</g>
<defs>
<linearGradient id="paint0_linear_4062_15041" x1="256.5" y1="-2.00018" x2="-9.11683e-08" y2="-2.00008" gradientUnits="userSpaceOnUse">
<stop stop-color="#C3852F"/>
<stop offset="0.234" stop-color="#FDE67E"/>
<stop offset="0.484" stop-color="#FED441"/>
<stop offset="0.724" stop-color="#FDE67E"/>
<stop offset="1" stop-color="#C3852F"/>
</linearGradient>
<clipPath id="clip0_4062_15041">
<rect width="250" height="6.21891" fill="white" transform="matrix(1 0 0 -1 0 6.21875)"/>
</clipPath>
</defs>
</svg>
