<svg width="31" height="33" viewBox="0 0 31 33" fill="none" xmlns="http://www.w3.org/2000/svg">
<mask id="mask0_4062_14858" style="mask-type:alpha" maskUnits="userSpaceOnUse" x="0" y="0" width="31" height="33">
<path fill-rule="evenodd" clip-rule="evenodd" d="M30.0706 20.6214H11.8563C11.4267 20.6214 10.9971 20.4496 10.6535 20.1059L7.47455 16.9268C7.13088 16.5831 7.13088 16.0676 7.47455 15.7239L10.6535 12.5448C10.9971 12.2011 11.4267 12.0293 11.8563 12.0293H30.0706C30.5861 12.0293 30.9298 12.373 30.9298 12.8885V19.7622C30.9298 20.2777 30.5861 20.6214 30.0706 20.6214ZM11 14.5005C11 14.2243 11.2239 14.0005 11.5 14.0005H23.5C23.7761 14.0005 24 14.2243 24 14.5005V15.5005C24 15.7766 23.7761 16.0005 23.5 16.0005H11.5C11.2239 16.0005 11 15.7766 11 15.5005V14.5005ZM11.5 17.0005C11.2239 17.0005 11 17.2243 11 17.5005V18.5005C11 18.7766 11.2239 19.0005 11.5 19.0005H18.5C18.7761 19.0005 19 18.7766 19 18.5005V17.5005C19 17.2243 18.7761 17.0005 18.5 17.0005H11.5Z" fill="#3F51B5"/>
<path d="M1.71826 0.859375H3.4366V31.791H1.71826V0.859375Z" fill="#CFD8DC"/>
<path d="M2.5775 6.87401C4.00101 6.87401 5.155 5.71997 5.155 4.29638C5.155 2.87279 4.00101 1.71875 2.5775 1.71875C1.15399 1.71875 0 2.87279 0 4.29638C0 5.71997 1.15399 6.87401 2.5775 6.87401Z" fill="#90A4AE"/>
<path d="M2.5775 18.9033C4.00101 18.9033 5.155 17.7493 5.155 16.3257C5.155 14.9021 4.00101 13.748 2.5775 13.748C1.15399 13.748 0 14.9021 0 16.3257C0 17.7493 1.15399 18.9033 2.5775 18.9033Z" fill="#90A4AE"/>
<path d="M2.5775 30.9316C4.00101 30.9316 5.155 29.7776 5.155 28.354C5.155 26.9304 4.00101 25.7764 2.5775 25.7764C1.15399 25.7764 0 26.9304 0 28.354C0 29.7776 1.15399 30.9316 2.5775 30.9316Z" fill="#90A4AE"/>
<path fill-rule="evenodd" clip-rule="evenodd" d="M23.1973 32.6507H11.8563C11.4267 32.6507 10.9971 32.4789 10.6535 32.1352L7.47455 28.9561C7.13088 28.6124 7.13088 28.0969 7.47455 27.7532L10.6535 24.5741C10.9971 24.2304 11.4267 24.0586 11.8563 24.0586H23.1973C23.7128 24.0586 24.0565 24.4023 24.0565 24.9178V31.7915C24.0565 32.307 23.7128 32.6507 23.1973 32.6507ZM11 26.5005C11 26.2243 11.2239 26.0005 11.5 26.0005H20.5C20.7761 26.0005 21 26.2243 21 26.5005V27.5005C21 27.7766 20.7761 28.0005 20.5 28.0005H11.5C11.2239 28.0005 11 27.7766 11 27.5005V26.5005ZM11.5 29.0005C11.2239 29.0005 11 29.2243 11 29.5005V30.5005C11 30.7766 11.2239 31.0005 11.5 31.0005H16.5C16.7761 31.0005 17 30.7766 17 30.5005V29.5005C17 29.2243 16.7761 29.0005 16.5 29.0005H11.5Z" fill="#448AFF"/>
<path fill-rule="evenodd" clip-rule="evenodd" d="M24.0565 8.59211H11.8563C11.4267 8.59211 10.9971 8.42027 10.6535 8.07658L7.47455 4.8975C7.13088 4.55382 7.13088 4.03829 7.47455 3.69461L10.6535 0.515526C10.9971 0.171842 11.4267 0 11.8563 0H24.0565C24.572 0 24.9156 0.343684 24.9156 0.859211V7.7329C24.9156 8.24843 24.572 8.59211 24.0565 8.59211ZM11 2.5C11 2.22386 11.2239 2 11.5 2H20.5C20.7761 2 21 2.22386 21 2.5V3.5C21 3.77614 20.7761 4 20.5 4H11.5C11.2239 4 11 3.77614 11 3.5V2.5ZM11.5 5C11.2239 5 11 5.22386 11 5.5V6.5C11 6.77614 11.2239 7 11.5 7H16.5C16.7761 7 17 6.77614 17 6.5V5.5C17 5.22386 16.7761 5 16.5 5H11.5Z" fill="#00BCD4"/>
</mask>
<g mask="url(#mask0_4062_14858)">
<rect width="30.93" height="32.6448" fill="url(#paint0_linear_4062_14858)"/>
</g>
<defs>
<linearGradient id="paint0_linear_4062_14858" x1="10.2053" y1="8.87915" x2="25.3586" y2="33.5909" gradientUnits="userSpaceOnUse">
<stop stop-color="#FDF294"/>
<stop offset="1" stop-color="#F68013"/>
</linearGradient>
</defs>
</svg>
