<svg width="30" height="30" viewBox="0 0 30 30" fill="none" xmlns="http://www.w3.org/2000/svg">
<g clip-path="url(#clip0_4062_15117)">
<path d="M0 30L2.06895 22.5C0.72416 20.1724 0 17.5862 0 14.8965C0 6.72416 6.72416 0 14.9483 0C23.1724 0 30 6.72416 30 14.8965C30 23.0689 23.1724 30 14.9483 30C12.3621 30 9.87932 29.1724 7.65516 27.9311L0 30Z" fill="#EDEDED"/>
<path d="M8.06892 25.2411L8.53444 25.4997C10.4482 26.6894 12.6724 27.4135 15 27.4135C21.7758 27.4135 27.4138 21.7756 27.4138 14.8963C27.4138 8.01693 21.7758 2.58594 14.9482 2.58594C8.12065 2.58594 2.58618 8.06867 2.58618 14.8963C2.58618 17.2756 3.2586 19.6031 4.49997 21.5687L4.81034 22.0342L3.62071 26.379L8.06892 25.2411Z" fill="#55CD6C"/>
<path d="M10.9656 7.9658L9.98283 7.91406C9.67246 7.91406 9.36214 8.01754 9.15525 8.22443C8.68972 8.63822 7.91388 9.41406 7.70699 10.4486C7.34493 12.0003 7.91388 13.8624 9.25872 15.7244C10.6036 17.5865 13.1898 20.5865 17.7415 21.8796C19.1897 22.2934 20.3277 22.0347 21.2587 21.4658C21.9829 21.0003 22.4484 20.2762 22.6036 19.5003L22.7587 18.7761C22.8105 18.5692 22.707 18.3106 22.5001 18.2072L19.2415 16.7072C19.0346 16.6037 18.7759 16.6554 18.6208 16.8623L17.3277 18.5175C17.2242 18.621 17.069 18.6726 16.9139 18.621C16.0346 18.3106 13.0863 17.0692 11.4828 13.9658C11.4311 13.8106 11.4311 13.6554 11.5346 13.552L12.7759 12.1555C12.8794 12.0003 12.9311 11.7934 12.8794 11.6382L11.3794 8.27617C11.3276 8.12096 11.1725 7.9658 10.9656 7.9658Z" fill="#FEFEFE"/>
</g>
<defs>
<clipPath id="clip0_4062_15117">
<rect width="30" height="30" fill="white"/>
</clipPath>
</defs>
</svg>
